<?xml version="1.0" encoding="utf-8"?>
<?xml-stylesheet type="text/xsl" href="rss1.xsl"?>
<rss version="2.0" xmlns:atom="http://www.w3.org/2005/Atom" xmlns:content="http://purl.org/rss/1.0/modules/content/" xmlns:dc="http://purl.org/dc/elements/1.1/" xmlns:media="http://search.yahoo.com/mrss/">
<channel>
 <title>Getty</title>
 <link>http://www.gettyimg.com/</link>
 <atom:link href="http://www.gettyimg.com/" rel="self" type="application/rss+xml" />

 
                <item>
                <title><![CDATA[【Albums (lossy)】PACK - Revista Jovem Pan (27 Albums) [MP3 variável kbits/44100 Hz]]]></title>
                <link><![CDATA[https://sharemania.us/threads/revista-jovem-pan-27-albums-mp3-vari%C3%A1vel-kbits-44100-hz.242265/]]></link>
                <description><![CDATA[<article>
<blockquote class="messageText SelectQuoteContainer ugc baseHtml">
<div style="text-align: center"><img src="https://i.ibb.co/SxSZ4ZP/Captura-de-tela-2024-04-15-080648.png" class="bbCodeImage LbImage" alt="[​IMG]" data-url="https://i.ibb.co/SxSZ4ZP/Captura-de-tela-2024-04-15-080648.png" style=""> <br>
<div class="bbCodeBlock bbCodeVfcHH HiddenContent">
<div class="attribution type">Hidden Content:</div>
<blockquote>You must either reply or click 'Like' to see the hidden information contained here.</blockquote>
</div></div>
<div class="messageTextEndMarker">&nbsp;</div>
</blockquote>
</article>]]></description>
                <author><![CDATA[Fan Made]]></author>
                </item>

                
                <item>
                <title><![CDATA[【Apple Music】WEB-RiP - Justin Timberlake - Selfish [Apple HD Music Video]]]></title>
                <link><![CDATA[https://sharemania.us/threads/justin-timberlake-selfish-apple-hd-music-video.242267/]]></link>
                <description><![CDATA[<article>
<blockquote class="messageText SelectQuoteContainer ugc baseHtml">
<span style="font-size: 22px"><b>Justin Timberlake - Selfish [Apple HD Music Video]</b></span><br>
<br>
<img src="https://imgur.com/qKJ6274.jpg" class="bbCodeImage LbImage" alt="[​IMG]" data-url="https://imgur.com/qKJ6274.jpg" style=""><br>
<br>
<div class="bbCodeBlock bbCodeCode">
<div class="type">Code:</div>
<pre>General
Format                         : MPEG-4
Codec ID                       : M4V  (isom/iso4/M4V /mp42)
File size                      : 300 MiB
Duration                       : 3 min 58 s
Overall bit rate mode          : Variable
Overall bit rate               : 10.5 Mb/s
Movie name                     : Selfish
Performer                      : Justin Timberlake
Genre                          : Pop
ContentType                    : Music Video
Recorded date                  : UTC 2024-01-27 08:00:00
Encoded date                   : UTC 2024-03-18 01:07:58
Tagged date                    : UTC 2024-03-18 01:07:58
Copyright                      : ℗ (C) 2024 RCA Records, a division of Sony Music Entertainment
Cover                          : Yes
Rating                         : None
GenreID                        : 1614
AppleStoreCountry              : Canada
AlbumTitleID                   : 398128
AppleStoreCatalogID            : 1727465730

Video
ID                             : 2
Format                         : AVC
Format/Info                    : Advanced Video Codec
Format profile                 : High@L4
Format settings                : CABAC / 4 Ref Frames
Format settings, CABAC         : Yes
Format settings, Reference fra : 4 frames
Codec ID                       : avc1
Codec ID/Info                  : Advanced Video Coding
Duration                       : 3 min 58 s
Bit rate                       : 10.3 Mb/s
Maximum bit rate               : 28.6 Mb/s
Width                          : 1 920 pixels
Height                         : 1 080 pixels
Display aspect ratio           : 16:9
Frame rate mode                : Constant
Frame rate                     : 24.000 FPS
Color space                    : YUV
Chroma subsampling             : 4:2:0
Bit depth                      : 8 bits
Scan type                      : Progressive
Bits/(Pixel*Frame)             : 0.206
Stream size                    : 292 MiB (97%)
Title                          : Core Media Video
Language                       : English
Encoded date                   : UTC 2024-03-07 07:14:18
Tagged date                    : UTC 2024-03-18 01:08:26
Color range                    : Limited
Color primaries                : BT.709
Transfer characteristics       : BT.709
Matrix coefficients            : BT.709
Codec configuration box        : avcC

Audio
ID                             : 1
Format                         : AAC LC
Format/Info                    : Advanced Audio Codec Low Complexity
Codec ID                       : mp4a-40-2
Duration                       : 3 min 58 s
Duration_LastFrame             : -7 ms
Bit rate mode                  : Variable
Bit rate                       : 265 kb/s
Maximum bit rate               : 382 kb/s
Channel(s)                     : 2 channels
Channel layout                 : L R
Sampling rate                  : 48.0 kHz
Frame rate                     : 46.875 FPS (1024 SPF)
Compression mode               : Lossy
Stream size                    : 7.45 MiB (2%)
Title                          : Core Media Audio
Encoded date                   : UTC 2024-03-07 07:14:10
Tagged date                    : UTC 2024-03-18 01:08:26

Text
ID                             : 3
Format                         : EIA-608
Codec ID                       : c608
Duration                       : 3 min 56 s
Bit rate mode                  : Variable
Bit rate                       : 150 b/s
Maximum bit rate               : 896 b/s
Frame rate                     : 0.402 FPS
Stream size                    : 4.31 KiB (0%)
Title                          : Core Media Closed Caption
Language                       : English
Forced                         : No
Encoded date                   : UTC 2024-03-07 07:14:18
Tagged date                    : UTC 2024-03-18 01:08:26
</pre>
</div>
<div class="bbCodeBlock bbCodeVfcHH HiddenContent">
<div class="attribution type">Hidden Content:</div>
<blockquote>You must reply before you can see the hidden data contained here.</blockquote>
</div>
<div class="messageTextEndMarker">&nbsp;</div>
</blockquote>
</article>]]></description>
                <author><![CDATA[abby0511]]></author>
                </item>

                
                <item>
                <title><![CDATA[【Albums (lossless)】FLAC - Loossemble - The 2nd Mini Album - «One Of A Kind» [FLAC 24Bit/96kHz]]]></title>
                <link><![CDATA[https://sharemania.us/threads/loossemble-the-2nd-mini-album-%C2%ABone-of-a-kind%C2%BB-flac-24bit-96khz.242266/]]></link>
                <description><![CDATA[<article>
<blockquote class="messageText SelectQuoteContainer ugc baseHtml">
<div style="text-align: center"><img src="https://i.imgur.com/5ojakvl.jpg" class="bbCodeImage LbImage" alt="[​IMG]" data-url="https://i.imgur.com/5ojakvl.jpg" style=""> <br>
<br>
<span data-s9e-mediaembed="youtube" style="display:inline-block;width:100%;max-width:640px"><span style="display:block;overflow:hidden;position:relative;padding-bottom:56.25%"><iframe allowfullscreen="" loading="lazy" scrolling="no" style="background:url(https://i.ytimg.com/vi/_JgwyxF2vfE/hqdefault.jpg) 50% 50% / cover;border:0;height:100%;left:0;position:absolute;width:100%" src="https://www.youtube.com/embed/_JgwyxF2vfE"></iframe></span></span><br>
<br>
<span data-s9e-mediaembed="spotify" style="display:inline-block;width:100%;max-width:320px"><span style="display:block;overflow:hidden;position:relative;padding-bottom:125%;padding-bottom:calc(100% + 80px)"><iframe allow="encrypted-media" allowfullscreen="" loading="lazy" scrolling="no" src="https://open.spotify.com/embed/album/2sN27KkVSnHvqi0MA2YxcZ" style="border:0;height:100%;left:0;position:absolute;width:100%"></iframe></span></span><br>
<br>
<div class="bbCodeBlock bbCodeVfcHH HiddenContent">
<div class="attribution type">Hidden Content:</div>
<blockquote>You must either reply or click 'Like' to see the hidden information contained here.</blockquote>
</div></div>
<div class="messageTextEndMarker">&nbsp;</div>
</blockquote>
</article>]]></description>
                <author><![CDATA[WithLoveSNSD]]></author>
                </item>

                </channel></rss>